<?xml version="1.0" encoding="UTF-8" standalone="no"?> <svg width="512" height="512" viewBox="0 0 512 512" fill="none" xmlns="http://www.w3.org/2000/svg">
<path fill-rule="evenodd" clip-rule="evenodd" d="M265.505 78.2637C261.298 70.8818 250.702 70.8818 246.495 78.2637L50.1721 422.804C45.9758 430.168 51.2977 439.273 59.6768 439.273H452.323C460.702 439.273 466.024 430.168 461.828 422.804L265.505 78.2637ZM211.192 58.072C231 23.3094 281 23.3093 300.808 58.072L497.131 402.612C516.765 437.069 491.975 480 452.323 480H59.6768C20.0248 480 -4.76523 437.069 14.8686 402.612L211.192 58.072ZM264.131 239.709C264.131 253.205 253.21 264.145 239.74 264.145C226.269 264.145 215.349 253.205 215.349 239.709C215.349 226.213 226.269 215.273 239.74 215.273C253.21 215.273 264.131 226.213 264.131 239.709ZM260.321 269.168C261.773 268.396 263.352 268.11 264.875 268.251L317.601 272.315C320.58 272.544 323.193 274.393 324.407 277.128L340.667 313.783C342.491 317.894 340.643 322.707 336.54 324.534C332.436 326.361 327.632 324.51 325.808 320.399L311.518 288.185L278.274 285.623L336.346 394.712C338.459 398.682 336.96 403.616 332.999 405.733C329.037 407.85 324.112 406.348 321.999 402.379L289.047 340.478L266.034 364.302L259.971 403.854C259.289 408.3 255.139 411.351 250.701 410.668C246.263 409.985 243.217 405.827 243.899 401.381L250.355 359.265C250.611 357.597 251.377 356.049 252.549 354.837L281.007 325.375L263.714 292.891L246.711 321.282C245.39 323.489 243.105 324.94 240.549 325.196L199.898 329.269C195.43 329.716 191.445 326.45 190.999 321.974C190.552 317.498 193.812 313.506 198.28 313.059L234.869 309.393L257.09 272.288C257.824 271.012 258.912 269.92 260.305 269.176L260.321 269.168Z" fill="black"/>
</svg>
